<svg width="1440" height="122" viewBox="0 0 1440 122" fill="none" xmlns="http://www.w3.org/2000/svg">
<path d="M1442 118.682C1374.65 93.4136 1291.26 72.8324 1196.51 57.6575C1150.85 50.3485 1102.57 44.2692 1052.14 39.5358C826.354 18.3049 558.232 23.7344 295.135 62.6926C267.753 66.7532 240.441 71.1618 213.221 75.9416C205.891 77.241 198.585 78.5404 191.279 79.8862C180.884 81.7888 170.489 83.7611 160.14 85.7798C158.527 86.1046 156.937 86.4295 155.346 86.7311C142.693 89.2138 130.062 91.7894 117.478 94.4578C110.379 95.9428 103.303 97.4742 96.2271 99.0288C93.0233 99.7249 89.8196 100.444 86.5928 101.164C57.4827 107.637 28.58 114.575 0 122C23.9934 114.807 48.1481 107.846 72.395 101.164C81.3608 98.6808 90.3267 96.2444 99.3386 93.8545C106.599 91.9054 113.882 90.026 121.165 88.1233C124.254 87.3112 127.342 86.5223 130.431 85.7334C152.626 80.0486 174.937 74.5958 197.317 69.4215C201.005 68.563 204.716 67.7045 208.427 66.846C212.345 65.941 216.263 65.0593 220.181 64.1776C223.569 63.4351 226.981 62.6926 230.392 61.9269C255.031 56.4974 279.738 51.3694 304.562 46.5664C307.857 45.9167 311.176 45.3134 314.472 44.6869C404.776 27.5861 496.232 14.8476 588.287 7.44575C609.561 5.75192 630.858 4.31333 652.177 3.17637C660.337 2.75871 668.519 2.34107 676.701 1.99302C769.332 -1.92832 862.402 -0.164883 955.448 8.18827C987.693 11.1119 1019.94 14.8012 1052.16 19.349C1054.26 19.6506 1056.35 19.9291 1058.43 20.2307C1058.47 20.2539 1058.54 20.2771 1058.59 20.3003C1058.75 20.3236 1058.94 20.3931 1059.12 20.3931C1059.42 20.3931 1059.7 20.4396 1060 20.4396C1120.24 29.1872 1180.4 40.8352 1240.3 55.7084C1307.9 72.4843 1375.23 93.344 1442 118.636V118.682Z" fill="#0C41B0"/>
</svg>
