<svg xmlns="http://www.w3.org/2000/svg" width="152" height="45" viewBox="0 0 152 45" fill="none">
  <g clip-path="url(#clip0_138_5)">
    <path d="M111.288 34.2368C111.32 34.2368 111.349 34.2417 111.38 34.2441C111.324 34.2368 111.271 34.2271 111.215 34.2198C111.22 34.2222 111.225 34.2246 111.232 34.2271C111.252 34.2319 111.269 34.2368 111.288 34.2368Z" fill="#ADD2FF"/>
    <path d="M100.36 31.3282C100.36 31.3282 100.374 31.3209 100.382 31.316C100.61 31.187 100.839 31.0556 101.057 30.9095C102.291 30.0966 103.297 29.0499 104.05 27.7404C104.614 26.7571 104.986 25.7007 105.183 24.5738C105.217 24.3791 105.246 24.1819 105.27 23.9848C105.297 23.7681 105.319 23.5515 105.331 23.3324C105.336 23.2205 105.338 23.1061 105.343 22.9941C105.367 22.3491 105.336 21.709 105.246 21.0712C105.195 20.6964 105.119 20.3289 105.025 19.9638C104.77 18.9707 104.378 18.0385 103.829 17.1841C103.268 16.3079 102.59 15.5387 101.808 14.8742C101.174 14.3339 100.481 13.8982 99.7306 13.5623C98.7102 13.1072 97.6509 12.798 96.5455 12.6763C96.2564 12.6447 95.9648 12.6082 95.6733 12.5984C95.6296 12.5984 95.5858 12.5911 95.5397 12.5887C95.4133 12.5814 95.287 12.5692 95.1607 12.5668C94.6286 12.5595 94.0941 12.5473 93.562 12.5473C90.0343 12.5473 86.5066 12.5473 82.9789 12.5473C82.6801 12.5473 82.3836 12.5522 82.0848 12.5571C81.6791 12.5644 81.2733 12.579 80.8676 12.5838C80.6465 12.5863 80.423 12.5765 80.2019 12.5717C79.8788 12.5668 79.5557 12.5376 79.235 12.4889C78.9458 12.4427 78.6616 12.377 78.3846 12.2772C77.8671 12.0897 77.4128 11.7977 77.0313 11.3814C76.7325 11.0553 76.5163 10.678 76.3899 10.2448C76.3316 10.0403 76.2903 9.83341 76.2636 9.62409C76.2199 9.27846 76.232 8.93526 76.2976 8.59693C76.3948 8.10039 76.6037 7.6574 76.8953 7.25823C77.1237 6.94424 77.4055 6.68867 77.7359 6.49151C77.9521 6.36251 78.1781 6.26272 78.4138 6.18239C78.7903 6.05583 79.1766 5.98767 79.5702 5.9536C79.9177 5.92195 80.2651 5.90248 80.6149 5.90735C81.0717 5.91222 81.5284 5.91222 81.9852 5.91222C87.8793 5.91222 93.7758 5.91222 99.6699 5.91222C99.9614 5.91222 100.253 5.91709 100.545 5.92195C100.856 5.92682 101.167 5.94143 101.477 5.94143C101.985 5.94386 102.493 5.94143 103.001 5.93656C103.134 5.93656 103.266 5.91709 103.399 5.90492C103.441 5.90005 103.465 5.87084 103.467 5.82459C103.47 5.76618 103.472 5.70533 103.472 5.64691C103.472 5.32806 103.472 5.0092 103.472 4.69278C103.477 3.28835 103.482 1.8815 103.487 0.477072C103.487 0.464902 103.487 0.450298 103.487 0.438127C103.484 0.360239 103.455 0.326163 103.385 0.323729C103.246 0.318861 103.105 0.316427 102.967 0.316427C101.38 0.309125 99.7938 0.296955 98.2073 0.299389C92.4906 0.311559 86.7738 0.323729 81.0547 0.318861C80.7243 0.318861 80.3938 0.321295 80.0659 0.323729C80.01 0.323729 79.9517 0.323729 79.8958 0.328597C79.5095 0.360239 79.1208 0.345635 78.7369 0.391881C78.5474 0.413787 78.3579 0.421089 78.1684 0.44543C77.8865 0.484374 77.6047 0.528186 77.3229 0.586602C76.407 0.774021 75.5396 1.09774 74.7136 1.54804C73.4696 2.22713 72.4492 3.17396 71.6645 4.3934C71.0814 5.29885 70.6805 6.28949 70.4618 7.35802C70.4108 7.60386 70.3671 7.85213 70.3404 8.10283C70.3185 8.30729 70.2918 8.51174 70.2845 8.7162C70.2699 9.16649 70.2578 9.61678 70.3112 10.0671C70.3306 10.2326 70.3404 10.3981 70.3647 10.5612C70.4205 10.9287 70.491 11.2914 70.5857 11.6492C70.768 12.3429 71.0255 13.0025 71.3729 13.6256C71.9099 14.5895 72.612 15.4 73.4648 16.0718C74.1839 16.6389 74.9711 17.0746 75.8141 17.4056C76.3802 17.6271 76.9585 17.7951 77.5513 17.9168C77.8258 17.9727 78.1004 18.0166 78.3773 18.0531C78.528 18.0725 78.681 18.0847 78.8316 18.0993C78.9385 18.109 79.0454 18.1188 79.1548 18.1237C79.269 18.131 79.3832 18.1285 79.4973 18.1383C79.6941 18.1553 79.8909 18.1602 80.0877 18.1602C81.0328 18.1626 81.9779 18.1699 82.923 18.1675C84.4779 18.1626 86.0328 18.148 87.5877 18.1456C89.4415 18.1407 91.2928 18.1456 93.1466 18.1456C93.6616 18.1456 94.1743 18.148 94.6893 18.1577C95.0829 18.165 95.4741 18.1918 95.8652 18.2356C96.2005 18.2721 96.5309 18.3257 96.8589 18.4036C97.3424 18.518 97.8089 18.6908 98.2438 18.9415C98.7783 19.2482 99.2399 19.6473 99.648 20.1171C100.127 20.6721 100.391 21.3292 100.469 22.0668C100.506 22.4221 100.494 22.7823 100.43 23.1377C100.323 23.7267 100.105 24.2647 99.7744 24.7539C99.5339 25.1093 99.2472 25.4135 98.924 25.6886C98.3409 26.1875 97.6874 26.5405 96.9585 26.7401C96.4726 26.8715 95.977 26.9469 95.4765 26.9786C95.4255 26.981 95.3745 26.9859 95.3234 26.9883C95.2092 26.9956 95.0951 27.0078 94.9809 27.0102C94.4026 27.0175 93.8268 27.0248 93.2486 27.0297C93.0907 27.0297 92.9303 27.0248 92.7724 27.0248C89.5751 27.02 86.3754 27.0175 83.0639 27.0127C82.3788 27.0127 81.5795 27.0127 80.7801 27.0127C77.8938 27.0151 75.0051 27.0175 72.1188 27.0224C71.8078 27.0224 71.4968 27.0346 71.1858 27.0443C71.1421 27.0443 71.0984 27.0516 71.0546 27.0565C71.0328 27.0589 71.0061 27.0857 71.0036 27.1076C70.9988 27.1465 70.9915 27.1855 70.9915 27.2244C70.9915 27.3364 70.9915 27.4508 70.9915 27.5627C70.9915 28.0057 70.9866 28.4512 70.9842 28.8966C70.9842 29.4856 70.9793 30.0771 70.9769 30.6661C70.9769 30.671 70.9769 30.6783 70.9769 30.6831C80.7413 30.2718 90.5518 30.4568 100.36 31.333V31.3282Z" fill="#ADD2FF"/>
    <path d="M10.4203 39.779C11.3241 38.2432 12.2328 36.7098 13.1366 35.1763C13.863 33.9472 14.5895 32.718 15.3159 31.4888C15.8285 30.6199 16.3436 29.7534 16.8562 28.8844C17.3664 28.0228 17.8839 27.1636 18.3868 26.2971C19.0963 25.0727 19.813 23.8509 20.5394 22.6387C21.4967 21.0445 22.4539 19.4502 23.3796 17.834C23.8169 17.0722 24.2712 16.3225 24.7183 15.5655C25.3475 14.4994 25.9768 13.4333 26.606 12.3672C27.6459 10.6074 28.6833 8.84763 29.7207 7.08541C30.9986 4.91914 32.2766 2.75287 33.5545 0.586597C33.6274 0.462462 33.7003 0.338328 33.7732 0.214193C33.7951 0.175249 33.8169 0.133871 33.8388 0.0924924C33.8509 0.0681523 33.8364 0.0340762 33.8096 0.0340762C33.7586 0.0340762 33.7076 0.0292081 33.6566 0.0292081C31.6522 0.0194721 29.6454 0.0121701 27.641 0.00243401C27.2158 0.00243401 26.7907 0.00243401 26.3655 0C26.3218 0 26.2756 0 26.2319 0C26.1784 0 26.1323 0.0194721 26.0982 0.0632843C26.0424 0.133871 25.9841 0.206891 25.9355 0.282345C25.7824 0.525746 25.6269 0.769148 25.4787 1.01498C25.056 1.73058 24.6454 2.45592 24.2178 3.16908C23.8873 3.71917 23.5691 4.27656 23.2435 4.82908C22.8135 5.55685 22.3786 6.28218 21.951 7.00995C21.4189 7.91297 20.899 8.82329 20.3572 9.72144C19.6988 10.8143 19.0477 11.9145 18.4087 13.022C17.9471 13.8227 17.4782 14.6187 16.9947 15.4049C16.4869 16.23 15.9864 17.06 15.4981 17.8973C14.7134 19.2433 13.9286 20.5917 13.1463 21.9402C12.381 23.2618 11.6035 24.5738 10.8066 25.876C10.0802 27.0589 9.38779 28.2637 8.68808 29.4637C8.14386 30.3984 7.59721 31.3306 7.05056 32.2628C6.76144 32.7545 6.46261 33.2389 6.17349 33.7305C5.64628 34.6214 5.12635 35.5147 4.59914 36.4055C3.91887 37.5544 3.23373 38.7032 2.55346 39.8521C2.36881 40.1612 2.19146 40.4752 2.01167 40.7867C1.9728 40.8549 1.93635 40.9255 1.90234 40.996C1.88533 41.0326 1.90234 41.0666 1.93635 41.0691C1.99952 41.0691 2.06269 41.0715 2.12586 41.0715C3.33092 41.0715 4.5384 41.0715 5.74346 41.0715V41.0764C6.2561 41.0764 6.76873 41.0764 7.28137 41.0764C8.22646 40.8159 9.17399 40.5604 10.1215 40.3097C10.2211 40.132 10.3232 39.9543 10.4252 39.779H10.4203Z" fill="#ADD2FF"/>
    <path d="M32.7916 35.1544C33.3723 34.1808 33.7246 33.638 34.4899 32.4308C38.8704 25.1385 43.0832 17.7366 47.437 10.4273C47.7528 9.87479 48.0954 9.34174 48.4039 8.78435C48.4161 8.76245 48.4307 8.73811 48.4428 8.7162C48.455 8.69429 48.4914 8.69186 48.5084 8.71133C48.5983 8.80626 49.3733 10.1109 49.6892 10.6561C50.2893 11.6857 50.8918 12.7153 51.4943 13.7449C52.2839 15.1128 53.127 16.4491 53.8607 17.8486C53.8729 17.8778 53.8486 17.9216 53.8194 17.9241C53.7562 17.9289 53.6931 17.9314 53.6299 17.9314C51.0546 17.9338 48.4768 17.9362 45.9015 17.9387C45.8383 17.9387 45.7752 17.9387 45.712 17.9411C45.6853 17.9411 45.6634 17.9581 45.6488 17.98C45.6002 18.0579 45.5565 18.1383 45.5103 18.2186C44.592 19.7617 43.6687 21.2976 42.782 22.8602C42.6921 23.0209 42.6046 23.1815 42.5171 23.3422C42.5001 23.3933 42.4054 23.5004 42.4928 23.5247C47.2766 23.5442 52.0628 23.5247 56.8466 23.532C56.9681 23.5491 57.143 23.4809 57.2208 23.605C57.2499 23.6562 57.2815 23.7073 57.3107 23.756C58.7587 26.2508 60.2018 28.7505 61.6547 31.2454C63.8972 31.0653 66.1421 30.9168 68.3894 30.7976C67.7577 29.6852 67.1188 28.5777 66.4895 27.4654C64.7621 24.4131 63.0347 21.3609 61.3073 18.3086C58.387 13.185 55.5274 8.01764 52.5585 2.92569C52.4443 2.75774 52.3204 2.59953 52.2281 2.41698C52.1965 2.33666 52.2839 2.2539 52.3131 2.18575C52.6581 1.59672 53.0031 1.01012 53.3456 0.42109C53.4015 0.326163 53.4574 0.228803 53.5133 0.131443C53.557 0.0535542 53.5424 0.0267801 53.4525 0.0243461C52.1892 0.0219121 50.9258 0.0243461 49.6649 0.0243461C48.4477 0.0194781 47.228 0.0194781 46.0108 0.0170441C45.9477 0.0170441 45.8845 0.0170441 45.8213 0.0194781C45.7557 0.0146101 45.7241 0.0730263 45.6974 0.124141C43.5303 3.87252 41.2951 7.58195 39.0939 11.3084C36.3752 15.9184 33.6639 20.5333 30.9379 25.1385C28.9821 28.4341 27.0312 31.7322 25.0924 35.0376C24.5457 35.9674 24.3149 36.3276 23.9335 36.958C26.5307 36.3885 29.1352 35.8506 31.7518 35.3467C32.0992 35.2786 32.4491 35.2153 32.7989 35.1496L32.7916 35.1544Z" fill="#ADD2FF"/>
    <path d="M20.4447 37.7467C20.8358 37.6566 21.2246 37.5665 21.6157 37.4765C22.0773 36.6635 22.2571 36.2862 22.9131 35.1763C23.6395 33.9472 24.3635 32.718 25.0924 31.4888C25.605 30.6199 26.1201 29.7534 26.6327 28.8844C27.1429 28.0228 27.6604 27.1636 28.1634 26.2971C28.8728 25.0728 29.5895 23.8509 30.3159 22.6387C31.2732 21.0445 32.2304 19.4502 33.1561 17.834C33.5934 17.0722 34.0477 16.3225 34.4948 15.5655C35.124 14.4994 35.7533 13.4333 36.3825 12.3672C37.4224 10.6074 38.4598 8.84764 39.4972 7.08541C40.7752 4.91914 42.0531 2.75287 43.331 0.586604C43.4039 0.46247 43.4768 0.338335 43.5497 0.2142C43.574 0.175256 43.5934 0.133878 43.6153 0.0924998C43.6275 0.0681597 43.6129 0.0340835 43.5861 0.0340835C43.5351 0.0340835 43.4841 0.0292155 43.4331 0.0292155C41.4287 0.0219135 39.4219 0.0121775 37.4175 0.00244141C36.9923 0.00244141 36.5672 0.00244141 36.142 0.00244141C36.0983 0.00244141 36.0521 0.00244141 36.0084 0.00244141C35.9549 0.00244141 35.9088 0.0219135 35.8748 0.0657257C35.8189 0.138746 35.7606 0.209332 35.712 0.284787C35.5589 0.528188 35.4034 0.771589 35.2552 1.01986C34.8325 1.73546 34.4219 2.46079 33.9943 3.17396C33.6639 3.72404 33.3456 4.28143 33.0176 4.83639C32.5876 5.56416 32.1551 6.28949 31.7251 7.01726C31.193 7.92028 30.6731 8.8306 30.1313 9.72632C29.4729 10.8216 28.8218 11.9194 28.1828 13.0268C27.7212 13.8276 27.2523 14.6235 26.7688 15.4097C26.261 16.2324 25.7605 17.0649 25.2722 17.9022C24.4874 19.2482 23.7027 20.5966 22.9204 21.9451C22.1551 23.2667 21.3776 24.5787 20.5807 25.8808C19.8567 27.0638 19.1619 28.2686 18.4622 29.4686C17.9179 30.4032 17.3713 31.3355 16.8246 32.2677C16.5355 32.7594 16.2391 33.2437 15.9476 33.7354C15.4204 34.6263 14.9004 35.5195 14.3732 36.4104C13.8752 37.2525 12.9471 38.8176 12.4174 39.7158C12.743 39.633 13.0686 39.5478 13.3941 39.4651C15.7338 38.8687 18.0856 38.2967 20.4447 37.754V37.7467Z" fill="#ADD2FF"/>
    <path d="M111.587 32.477C111.604 32.4795 111.623 32.4868 111.643 32.4868C111.674 32.4868 111.703 32.4916 111.735 32.4916C118.086 33.4068 124.425 34.6311 130.739 36.1913C130.967 36.1597 131.196 36.1207 131.427 36.0842C131.847 36.0161 132.265 35.926 132.68 35.8214C133.275 35.6704 133.861 35.4782 134.434 35.2421C135.705 34.7187 136.878 33.9885 137.945 33.032C139.233 31.8783 140.355 30.5371 141.298 28.9988C142.034 27.7964 142.634 26.5064 143.096 25.1312C143.521 23.8606 143.817 22.5511 143.985 21.2027C144.036 20.7889 144.089 20.3751 144.094 19.9565C144.094 19.92 144.094 19.8834 144.104 19.8469C144.111 19.8129 144.128 19.7788 144.14 19.7471V16.8847C144.106 16.8117 144.097 16.7314 144.097 16.6511C144.094 16.432 144.08 16.213 144.063 15.9915C144.029 15.6045 143.985 15.2199 143.931 14.8353C143.863 14.3509 143.781 13.869 143.681 13.3895C143.465 12.338 143.173 11.3157 142.794 10.3275C142.462 9.46831 142.068 8.64805 141.589 7.88377C141.108 7.11706 140.586 6.38929 140.017 5.7029C139.325 4.86803 138.565 4.12566 137.729 3.49281C136.565 2.60927 135.309 1.95452 133.982 1.47015C133.171 1.1732 132.338 0.983347 131.495 0.854345C131.368 0.834872 131.242 0.817834 131.118 0.798362C130.955 0.776456 130.79 0.749682 130.627 0.732644C130.406 0.710738 130.185 0.6937 129.964 0.674228C129.94 0.674228 129.913 0.66936 129.889 0.666926C129.755 0.65719 129.624 0.64502 129.49 0.635284C129.408 0.630415 129.325 0.630415 129.242 0.620679C129.046 0.598773 128.849 0.596339 128.652 0.591471C128.436 0.586603 128.22 0.584169 128.006 0.574433C127.568 0.554961 127.131 0.554961 126.694 0.557395C126.359 0.557395 126.021 0.567131 125.686 0.571999C125.158 0.579301 124.631 0.589037 124.106 0.589037C122.445 0.589037 120.78 0.589037 119.118 0.581735C116.606 0.574433 114.094 0.559829 111.58 0.591471C111.422 0.591471 111.261 0.596339 111.103 0.601207C111.064 0.601207 111.028 0.608509 110.992 0.615811C110.962 0.620679 110.931 0.659624 110.931 0.691266C110.928 0.77889 110.924 0.866515 110.924 0.954139C110.924 11.4277 110.921 21.8988 110.919 32.3724C111.14 32.404 111.361 32.4332 111.582 32.4649C111.587 32.4673 111.594 32.4697 111.599 32.4722L111.587 32.477ZM116.3 18.4815C116.3 14.716 116.3 10.9506 116.3 7.18521C116.3 7.09028 116.3 6.99536 116.307 6.90043C116.307 6.84688 116.346 6.80794 116.395 6.80307C116.458 6.7982 116.521 6.79577 116.584 6.79577C117.359 6.79333 118.132 6.78846 118.907 6.78846C120.664 6.78846 122.423 6.79333 124.179 6.79333C124.979 6.79333 125.778 6.78116 126.577 6.77873C127.172 6.77873 127.77 6.78116 128.365 6.78846C128.535 6.78846 128.708 6.80794 128.878 6.81767C128.91 6.81767 128.941 6.82254 128.973 6.82254C129.221 6.82254 129.466 6.85418 129.714 6.88339C130.409 6.96371 131.096 7.09028 131.769 7.30691C132.775 7.63063 133.703 8.14177 134.553 8.84034C135.814 9.87966 136.815 11.1867 137.568 12.7518C137.952 13.5501 138.232 14.3996 138.426 15.2856C138.521 15.7116 138.594 16.1448 138.647 16.5805C138.688 16.9286 138.718 17.2791 138.742 17.6296C138.783 18.2088 138.776 18.7881 138.769 19.3674C138.769 19.4697 138.757 19.5719 138.749 19.6741C138.747 19.7179 138.74 19.7617 138.74 19.8056C138.727 20.0538 138.696 20.3021 138.667 20.5479C138.628 20.8838 138.572 21.2124 138.506 21.541C138.205 23.0306 137.683 24.4058 136.895 25.6374C136.376 26.4504 135.78 27.1782 135.088 27.7988C134.6 28.237 134.072 28.6021 133.521 28.9185C132.831 29.3152 132.109 29.6049 131.356 29.802C131.048 29.8848 130.737 29.9505 130.421 30.0041C130.144 30.0503 129.867 30.0844 129.59 30.1112C129.007 30.1696 128.426 30.1988 127.841 30.1939C126.997 30.189 126.152 30.1793 125.309 30.1744C124.42 30.1696 123.533 30.1671 122.644 30.1671C120.644 30.1671 118.647 30.1671 116.648 30.1671C116.572 30.1671 116.495 30.1671 116.419 30.1623C116.395 30.1623 116.368 30.1574 116.346 30.1452C116.332 30.1379 116.317 30.116 116.31 30.099C116.3 30.0722 116.298 30.043 116.298 30.0138C116.298 29.9262 116.298 29.8386 116.298 29.7485C116.298 25.9904 116.298 22.2323 116.298 18.4742L116.3 18.4815Z" fill="#ADD2FF"/>
    <path d="M152 44.6519C144.901 42.0013 136.111 39.8423 126.123 38.2505C121.31 37.4838 116.22 36.8461 110.904 36.3495C87.1043 34.1224 58.8413 34.692 31.108 38.7787C28.2217 39.2046 25.3427 39.6671 22.4734 40.1685C21.7008 40.3048 20.9306 40.4411 20.1604 40.5823C19.0647 40.7819 17.969 40.9887 16.8781 41.2005C16.708 41.2346 16.5404 41.2687 16.3727 41.3003C15.0389 41.5607 13.7075 41.8309 12.381 42.1108C11.6327 42.2666 10.8868 42.4272 10.1409 42.5903C9.80324 42.6633 9.46553 42.7388 9.1254 42.8143C6.05687 43.4933 3.01022 44.2211 -0.00242615 45C2.52674 44.2455 5.07291 43.5152 7.62879 42.8143C8.57389 42.5538 9.51898 42.2982 10.4689 42.0475C11.2342 41.8431 12.002 41.6459 12.7697 41.4463C13.0953 41.3612 13.4208 41.2784 13.7464 41.1956C16.0861 40.5993 18.4379 40.0273 20.797 39.4845C21.1857 39.3945 21.5768 39.3044 21.968 39.2144C22.381 39.1194 22.794 39.0269 23.2071 38.9344C23.5642 38.8566 23.9238 38.7787 24.2834 38.6983C26.8806 38.1288 29.485 37.5909 32.1017 37.087C32.4491 37.0189 32.7989 36.9556 33.1464 36.8899C42.6653 35.096 52.3058 33.7597 62.0094 32.9833C64.2519 32.8056 66.4968 32.6547 68.7441 32.5354C69.6042 32.4916 70.4667 32.4478 71.3292 32.4113C81.0936 31.9999 90.9041 32.1849 100.712 33.0612C104.111 33.3679 107.51 33.7549 110.907 34.2319C111.128 34.2636 111.349 34.2928 111.567 34.3244C111.572 34.3269 111.58 34.3293 111.584 34.3317C111.601 34.3342 111.621 34.3415 111.64 34.3415C111.672 34.3415 111.701 34.3463 111.733 34.3463C118.083 35.264 124.425 36.4858 130.739 38.046C137.865 39.8058 144.962 41.994 152 44.6471V44.6519Z" fill="#ADD2FF"/>
  </g>
  <defs>
    <clipPath id="clip0_138_5">
      <rect width="152" height="45" fill="white"/>
    </clipPath>
  </defs>
</svg>