<svg width="24" height="25" viewBox="0 0 24 25" fill="none" xmlns="http://www.w3.org/2000/svg">
<path d="M19.5 22.5C19.8978 22.5 20.2794 22.342 20.5607 22.0607C20.842 21.7794 21 21.3978 21 21V17.5C21 17.1022 20.842 16.7206 20.5607 16.4393C20.2794 16.158 19.8978 16 19.5 16C18.33 16 17.18 15.82 16.08 15.45C15.817 15.367 15.5363 15.3576 15.2683 15.4228C15.0004 15.488 14.7554 15.6254 14.56 15.82L13.12 17.26C10.6322 15.9024 8.58758 13.8578 7.23 11.37L8.66 9.94C9.07 9.55 9.22 8.97 9.04 8.41C8.68 7.32 8.5 6.17 8.5 5C8.5 4.60218 8.34196 4.22064 8.06066 3.93934C7.77936 3.65804 7.39782 3.5 7 3.5H3.5C3.10218 3.5 2.72064 3.65804 2.43934 3.93934C2.15804 4.22064 2 4.60218 2 5C2 14.65 9.85 22.5 19.5 22.5ZM3.5 4.5H7C7.13261 4.5 7.25979 4.55268 7.35355 4.64645C7.44732 4.74021 7.5 4.86739 7.5 5C7.5 6.28 7.7 7.53 8.09 8.72C8.14 8.86 8.13 9.06 7.97 9.22L6 11.18C7.65 14.41 10.07 16.83 13.31 18.5L15.26 16.53C15.4 16.39 15.59 16.35 15.77 16.4C16.97 16.8 18.22 17 19.5 17C19.6326 17 19.7598 17.0527 19.8536 17.1464C19.9473 17.2402 20 17.3674 20 17.5V21C20 21.1326 19.9473 21.2598 19.8536 21.3536C19.7598 21.4473 19.6326 21.5 19.5 21.5C10.4 21.5 3 14.1 3 5C3 4.86739 3.05268 4.74021 3.14645 4.64645C3.24021 4.55268 3.36739 4.5 3.5 4.5Z" fill="#ADD2FF"/>
</svg>
